<svg version="1.1" id="Layer_1" xmlns="http://www.w3.org/2000/svg" x="0" y="0" viewBox="0 0 128 128" xml:space="preserve"><style>.st0{fill:#fff}</style><path class="st0" d="M93.6 41.5c-1.1-.6-2.4-1-3.7-1H38.1c-1.3 0-2.6.4-3.7 1l29.6 26 29.6-26z"/><path class="st0" d="M78.2 60.6l7.8 6.9c.9.7 1 2.1.2 2.9v.1c-.4.5-1 .7-1.6.7-.5 0-1-.1-1.4-.5L75 63.5l-9.6 8.4c-.4.3-.9.5-1.4.5-.5 0-1-.1-1.4-.5L53 63.5l-8.2 7.2c-.4.3-.9.5-1.4.5-.6 0-1.2-.2-1.6-.7-.8-.9-.7-2.2.1-3h.1l7.9-6.8-18.3-16.1c-.5 1-.8 2.1-.8 3.2v32.4c0 4 3.3 7.3 7.3 7.3H90c4 0 7.3-3.3 7.3-7.3V47.8c0-1.1-.3-2.2-.8-3.2l-18.3 16z"/></svg>