<svg width="380" height="380" xmlns="http://www.w3.org/2000/svg">
 <defs>
  <style>.cls-1{fill:#e24329;}.cls-2{fill:#fc6d26;}.cls-3{fill:#fca326;}</style>
 </defs>
 <g>
  <title>background</title>
  <rect fill="none" id="canvas_background" height="402" width="582" y="-1" x="-1"/>
 </g>
 <g>
  <title>Layer 1</title>
  <g stroke="null" id="LOGO">
   <path stroke="null" id="svg_1" d="m365.983664,154.045158l-0.510402,-1.30436l-49.414447,-128.961498a12.873465,12.873465 0 0 0 -5.085113,-6.12482a13.232637,13.232637 0 0 0 -15.123013,0.812862a13.232637,13.232637 0 0 0 -4.385674,6.654126l-33.365149,102.080341l-135.105222,0l-33.365149,-102.080341a12.967984,12.967984 0 0 0 -4.385674,-6.67303a13.232637,13.232637 0 0 0 -15.123013,-0.812862a12.986888,12.986888 0 0 0 -5.085113,6.12482l-49.508965,128.904786l-0.491498,1.30436a91.758884,91.758884 0 0 0 30.435065,106.050132l0.170134,0.132326l0.45369,0.321364l75.2748,56.371033l37.240421,28.185516l22.68452,17.126813a15.25534,15.25534 0 0 0 18.450076,0l22.68452,-17.126813l37.240421,-28.185516l75.72849,-56.711301l0.189038,-0.15123a91.796692,91.796692 0 0 0 30.397257,-105.93671z" class="cls-1"/>
   <path stroke="null" id="svg_2" d="m365.983664,154.045158l-0.510402,-1.30436a166.920261,166.920261 0 0 0 -66.446741,29.867952l-108.526526,82.061252c36.956864,27.958671 69.131075,52.250012 69.131075,52.250012l75.72849,-56.711301l0.189038,-0.15123a91.796692,91.796692 0 0 0 30.435065,-106.012325z" class="cls-2"/>
   <path stroke="null" id="svg_3" d="m121.368921,316.920013l37.240421,28.185516l22.68452,17.126813a15.25534,15.25534 0 0 0 18.450076,0l22.68452,-17.126813l37.240421,-28.185516s-32.212019,-24.366955 -69.168883,-52.250012c-36.956864,27.883056 -69.131075,52.250012 -69.131075,52.250012z" class="cls-3"/>
   <path stroke="null" id="svg_4" d="m81.954567,182.608749a166.71232,166.71232 0 0 0 -66.427837,-29.943567l-0.491498,1.30436a91.758884,91.758884 0 0 0 30.435065,106.050132l0.170134,0.132326l0.45369,0.321364l75.2748,56.371033s32.136404,-24.29134 69.131075,-52.250012l-108.545429,-81.985637z" class="cls-2"/>
  </g>
 </g>
</svg>