<svg width="220" height="220" fill="none" xmlns="http://www.w3.org/2000/svg"><g filter="url(#filter0_d)"><path d="M43.345 73.83C37.387 84.72 34 97.215 34 110.5c0 42.25 34.25 76.5 76.5 76.5s76.5-34.25 76.5-76.5c0-13.173-3.329-25.568-9.193-36.39l-15.19 8.29C167.321 90.873 170 100.624 170 111c0 32.585-26.415 59-59 59s-59-26.415-59-59c0-10.319 2.65-20.02 7.305-28.459l-15.96-8.71z" fill="#fff"/></g><path d="M177.803 74.11C164.861 50.222 139.572 34 110.495 34 81.532 34 56.328 50.096 43.34 73.83l15.96 8.712C69.345 64.334 88.73 52 110.995 52c22.208 0 41.551 12.27 51.618 30.4l15.19-8.29z" fill="url(#paint0_linear)"/><defs><linearGradient id="paint0_linear" x1="111" y1="-4" x2="111" y2="83" gradientUnits="userSpaceOnUse"><stop stop-color="#363636"/><stop offset=".76" stop-color="#818181"/><stop offset="1" stop-color="#B1B1B1"/></linearGradient><filter id="filter0_d" x="4" y="43.831" width="213" height="173.169" filterUnits="userSpaceOnUse" color-interpolation-filters="sRGB"><feFlood flood-opacity="0" result="BackgroundImageFix"/><feColorMatrix in="SourceAlpha" values="0 0 0 0 0 0 0 0 0 0 0 0 0 0 0 0 0 0 127 0"/><feOffset/><feGaussianBlur stdDeviation="15"/><feColorMatrix values="0 0 0 0 1 0 0 0 0 1 0 0 0 0 1 0 0 0 1 0"/><feBlend in2="BackgroundImageFix" result="effect1_dropShadow"/><feBlend in="SourceGraphic" in2="effect1_dropShadow" result="shape"/></filter></defs></svg>