<svg width="415" height="87" fill="none" xmlns="http://www.w3.org/2000/svg"><path d="M0 55.9c0-4.3.8-8.4 2.4-12.1C4 40.1 6.2 36.8 9 34c2.8-2.8 6.1-5 9.9-6.6 3.8-1.6 7.8-2.4 12-2.4 4.3 0 8.4.8 12.1 2.4 3.7 1.6 7 3.8 9.9 6.6 2.9 2.8 5.1 6.1 6.7 9.8 1.6 3.7 2.4 7.8 2.4 12.1 0 4.2-.8 8.3-2.4 12-1.6 3.8-3.9 7.1-6.7 10-2.9 2.9-6.2 5.1-9.9 6.7-3.7 1.6-7.8 2.4-12.1 2.4-4.2 0-8.3-.8-12-2.4-3.8-1.6-7.1-3.9-9.9-6.7-2.8-2.9-5-6.2-6.6-10C.8 64.1 0 60.1 0 55.9zm12.2 0c0 2.6.5 5 1.5 7.3s2.3 4.3 4 6c1.7 1.7 3.7 3 6 4s4.8 1.5 7.3 1.5c2.6 0 5-.5 7.3-1.5s4.3-2.3 6-4c1.7-1.7 3-3.7 4-6s1.5-4.8 1.5-7.3c0-2.6-.5-5-1.5-7.3s-2.3-4.2-4-6c-1.7-1.7-3.7-3-6-4s-4.8-1.5-7.3-1.5c-2.6 0-5 .5-7.3 1.5s-4.3 2.3-6 4c-1.7 1.7-3 3.7-4 6s-1.5 4.7-1.5 7.3zm62.7-21.8c3-3 6.5-5.3 10.3-6.8C89 25.8 92.9 25 96.8 25c3.9 0 7.8.8 11.6 2.3 3.8 1.5 7.2 3.8 10.3 6.8l4.3 4.3-8.5 8.7-4.4-4.3c-1.8-1.8-3.9-3.2-6.2-4.1-2.3-.9-4.6-1.4-7-1.4-2.4 0-4.7.5-7 1.4-2.3.9-4.4 2.3-6.2 4.1-1.8 1.7-3.2 3.8-4.1 6.1-.9 2.3-1.4 4.6-1.4 7 0 2.4.5 4.7 1.4 7 .9 2.3 2.3 4.4 4.1 6.2 3.7 3.7 8.1 5.5 13.2 5.5 2.5 0 4.9-.5 7.2-1.4 2.3-.9 4.3-2.3 6.1-4.1l4.4-4.3 8.5 8.7-4.3 4.3c-3 3-6.5 5.3-10.3 6.8-3.8 1.5-7.7 2.3-11.6 2.3-4 0-7.8-.8-11.6-2.3-3.8-1.5-7.2-3.8-10.3-6.8-3-3-5.3-6.4-6.8-10.2C66.7 63.8 66 60 66 56s.7-7.9 2.2-11.6c1.4-3.8 3.7-7.2 6.7-10.3zm89.2 40.3v12.3H158c-4.2 0-8.2-.8-12-2.4-3.8-1.6-7.1-3.8-9.9-6.7-2.8-2.8-5.1-6.2-6.7-9.9-1.6-3.8-2.4-7.8-2.4-12V0h12.3v24.8h24.8v12.3h-24.8v18.6c0 2.6.5 5 1.4 7.3 1 2.3 2.3 4.3 4 6 1.7 1.7 3.7 3 6 4s4.7 1.4 7.3 1.4h6.1zM199 25c4.3 0 8.3.8 12.1 2.4 3.7 1.6 7 3.8 9.8 6.6 2.8 2.8 5 6.1 6.6 9.8 1.6 3.7 2.4 7.7 2.4 12.1v31H199c-4.2 0-8.2-.8-12-2.4-3.8-1.6-7.1-3.8-9.9-6.7-2.8-2.8-5.1-6.2-6.7-9.9-1.6-3.8-2.4-7.8-2.4-12 0-4.3.8-8.3 2.4-12.1 1.6-3.7 3.8-7 6.7-9.8 2.8-2.8 6.2-5 9.9-6.6 3.8-1.5 7.8-2.4 12-2.4zm18.6 49.7V56c0-2.6-.5-5-1.4-7.2-1-2.3-2.3-4.2-4-5.9-1.7-1.7-3.7-3-5.9-4-2.3-1-4.7-1.4-7.2-1.4-2.6 0-5 .5-7.3 1.4-2.3 1-4.3 2.3-6 4-1.7 1.7-3 3.7-4 5.9-1 2.3-1.4 4.7-1.4 7.2 0 2.6.5 5 1.4 7.3 1 2.3 2.3 4.3 4 6 1.7 1.7 3.7 3 6 4s4.7 1.4 7.3 1.4h18.5zM287.1 25v61.9H275V25h12.1zm6.13 18.8c1.6-3.7 3.8-7 6.6-9.8 2.8-2.8 6.1-5 9.9-6.6 3.8-1.6 7.8-2.4 12-2.4 4.3 0 8.3.8 12.1 2.4 3.7 1.6 7 3.8 9.9 6.6 2.8 2.8 5.1 6.1 6.7 9.8 1.6 3.7 2.4 7.7 2.4 12.1v31h-12.3v-31c0-2.6-.5-5-1.4-7.2-1-2.3-2.3-4.2-4-5.9-1.7-1.7-3.7-3-6-4s-4.7-1.4-7.3-1.4c-2.6 0-5 .5-7.2 1.4-2.3 1-4.2 2.3-5.9 4-1.7 1.7-3 3.7-4 5.9-1 2.3-1.4 4.7-1.4 7.2v31h-12.3v-31c-.2-4.4.6-8.4 2.2-12.1zm112.37 21l8.7 8.7-4.3 4.3c-2.9 2.9-6.3 5.2-10.1 6.8-3.8 1.6-7.7 2.3-11.9 2.3s-8.1-.8-11.9-2.3c-3.8-1.6-7.1-3.8-10.1-6.8s-5.3-6.5-6.8-10.3c-1.5-3.8-2.2-7.7-2.2-11.6 0-3.9.7-7.8 2.2-11.6 1.5-3.8 3.7-7.2 6.8-10.2 3-3 6.5-5.3 10.3-6.8 3.8-1.5 7.7-2.3 11.6-2.3 3.9 0 7.8.8 11.6 2.3 3.8 1.5 7.2 3.8 10.3 6.8l4.3 4.3-34.3 34.3c3.5 1.7 7.2 2.3 11.1 1.7 3.9-.6 7.3-2.4 10.3-5.3l4.4-4.3zm-30.8-22.2c-3.7 3.7-5.5 8.1-5.5 13.2 0 2.8.6 5.6 1.9 8.1l5-5 7.2-7.2c2.5-2.5 5-4.9 7.3-7.2s4.2-4.1 5.4-5.4c-3.5-1.7-7.2-2.3-11.1-1.8-3.8.6-7.2 2.3-10.2 5.3zm-103.7-5.2h-6.2c-2.6 0-5 .5-7.2 1.4-2.3 1-4.2 2.3-5.9 4-1.7 1.7-3 3.7-4 5.9-1 2.3-1.4 4.7-1.4 7.2v31H234v-31c0-4.3.8-8.3 2.4-12.1 1.6-3.7 3.8-7 6.7-9.8 2.8-2.8 6.2-5 9.9-6.6 3.8-1.6 7.8-2.4 12-2.4h6.1v12.4z" fill="#fff"/><path d="M246.1 25.1V87H234V25.1h12.1z" fill="#fff"/></svg>