<svg xmlns="http://www.w3.org/2000/svg" viewBox="0 0 120 120"><path d="M104.7 42.3c-.8-2.9-1.9-5.6-2.9-8.3-.7-.6-1.1-1.5-1.6-2.2-.4-1-1.4-1.4-1.6-2.6-2.7-2.3-5.1-4.9-8-6.7-.2-.1-.5.1-.6 0-.2-.1-.2-.6-.6-.6-.9 0-1.7-.9-2.2-1.3-.4-.2-.9-.4-1.3-.6-5.6-2.8-13-4.9-20.4-5.1-3.9-.1-8.3.1-11.8 0-.1.3-.3.4-.6.3h-1.9c-6.1 1.5-11.8 3.3-16.9 5.7-.1.2-.3.4-.6.3-.9 1.3-2.5 1.8-3.5 2.9-.9 1.4-2.3 2.1-3.2 3.5-1.1 1.2-2 2.4-3.2 3.5-1 1.3-1.7 2.7-2.9 3.8-1.1 2.6-2.6 4.6-3.5 7.3-.8 2.8-1.6 5.6-2.2 8.6.2 1-.2 1.5-.3 2.2v10c1.4 9.8 4.2 18.2 8.3 25.2 1.9 2.1 4 3.9 6.1 5.4.7.5 1.6 1.4 2.6 1.6 1.3 1.4 3.1 2.2 4.8 3.2 1.5 1.2 3.2 2.2 4.8 3.2 1.3-.2 1.4.9 2.9.6 1.3-.1 2 .3 2.9.6 2 .3 3.8.9 5.7 1.3 4.3.5 8.8.8 13.7.6 2-.3 4.3-.3 6.1-1 4-.7 7.4-2 10.2-3.8 2-.5 2.9-1.9 4.8-2.6 1.5-1.4 3-3 4.8-4.1 1.2-1.8 2.7-3.4 4.1-5.1.9-2.1 2.5-3.6 3.2-6.1 1.4-1.7 1.7-4.5 2.9-6.4 2.1-9.2 3.3-22 1.9-33.3zm-6.1 25.8c-.5 1.9-1.4 4.9-2.2 7-.1.2-.6.8-.6 1-.2.5-.1.8-.3 1.3-1.4 3.1-3.3 5.7-4.8 8.3-2.5 2.7-5 5.4-8 7.7-1.7 1-3.2 2.1-5.1 2.9-1.6.9-3.8 1.3-5.4 2.2-7.1 1.4-16.4 1.1-23-.6-3.9-.9-6.7-2.9-10.5-3.8-1.9-1.7-4.3-2.9-6.1-4.8-2.2-1.5-4.2-3.1-5.7-5.1 0-.5-.2-.8-.6-1-1.2-2.1-1.7-4.8-2.9-7-1.1-2-2-4.4-2.6-7v-.6c-.4-2.1.1-4.6 0-7-.1-2.4-.6-4.7-.3-7C22.3 45.1 26.2 37.5 32 32c5.1-4 10.9-7.3 18.2-9.2 2.6-.3 5.1-.8 8.3-.6h.6c.5-.8 3.1-.1 4.8 0 4.5.2 9.1.4 12.8 1.6 4.9 1.5 9.2 3.6 13.1 6.1.8.9 1.9 1.5 2.9 2.2.7 1 1.6 1.8 2.6 2.6 1.3 2 2.6 4 3.8 6.1.1 1.2.4 2.1 1 2.9.7 8.4.5 17.2-1.5 24.4zM72.4 50.6c.7.1.7 1 1.3 1.3.1.7 1.4.3 1.6 1 1.4-.2 2.3-.9 3.5-1.3 1.1-1.2 1.8-2.6 2.2-4.1.7-2.6.4-6.9-.6-9.2-1-.7-1.9-1.5-3.8-1.3-1.2.7-2.1 1.7-3.2 2.6-.2 1.7-1.1 2.8-1.3 4.5v5.7c.4-.1.4.3.3.8zm-24.8 2.2c2.3.2 3.8-.4 5.1-1.3 1.6-3.5 2.1-9.6 0-13.1-1.2-.5-2.6-.8-4.5-.6-1.4.7-2.4 1.9-3.2 3.2-.5 3.5-.9 9.3 1.3 11.2.6 0 1.1.2 1.3.6zM78.5 72c-2-2-4-3.8-6.4-5.4-.9.3-.8-.4-1.6-.3-.2-.6-1.5 0-1.6-.6-3.9-.2-7.2.2-10.5.6-1.7 1-4.3 1.3-5.7 2.6-2.2.7-3.7 2-5.4 3.2-1.7 1.2-2.9 2.9-4.5 4.1-.3 1.1-1 1.8-1.3 2.9.4 1.1.6 2.4 1.9 2.6 1.8.3 1.8-1.1 2.6-1.9.5-1 1.7-1.5 2.2-2.6 1.2-.3 1.8-1.2 2.6-1.9 1.1-.4 1.8-1.1 2.9-1.6 2-1.1 4.4-1.8 7-2.2h7.7c.1.3.3.4.6.3 2.3.9 3.6 2.8 5.1 4.5 1.9 2.1 2.1 6 6.1 6.1.4-.5 1.2-.5 1.6-1 .2-.4.3-.7.6-1 .3-2.3-1-3-1.6-4.5-.6-1.6-1.7-2.6-2.3-3.9z" fill="#ff3c00"/></svg>