<svg xmlns="http://www.w3.org/2000/svg" viewBox="0 0 63.9 70.1"><path d="M62.8 35.9c-1.1-6.7-5.9-7.8-8.1-7.9-.7 0-1.3-.4-1.7-1-1.6-2.5-3.8-3.1-5.6-3.1-.8 0-1.6.1-2.2.3-.2.1-.4.1-.6.1-.7 0-1.3-.3-1.8-.9-1.6-2.2-3.6-2.8-5.4-2.8-.4 0-.9 0-1.2.1h-.8c-1.2 0-2.7-1-2.7-2.2V5.7c0-3.3-2.5-4.9-5-4.9s-5 1.6-5 4.9v31.6c0 2.5-1.5 4.3-3.7 4.3-.7 0-1.1-.2-1.7-.5-3-1.6-6.1-3-9.5-4.3-.8-.3-1.4-.4-2.1-.4-4.6 0-7.2 6.1-2.1 9.4 5.9 3.8 13.4 5.9 16.2 10.1 1.8 2.7 5.6 10.1 7 13.1.4.8 1.1 1.2 2 1.2H52c1.1 0 2-.7 2.2-1.8l1.2-9.1c0-.3.2-.6.3-.9 6.3-9.9 8.2-16.1 7.1-22.5z" fill="#fff"/></svg>