<svg viewBox="0 0 512 512" xmlns="http://www.w3.org/2000/svg"><style>.st2{fill:#fff}</style><g id="Layer_2"><path d="M172 401.3c.1-10.3.3-20.6.4-30.9 0-2.4.3-2.1-2-3.1-12.8-5.1-24.7-11.5-35.2-20.5-11.1-9.5-19.8-20.7-26.2-33.8-6.1-12.6-9.5-26-11.4-39.8-.7-5.4-1.1-10.8-1.1-16.2 0-5.1-.8-10.2-.9-15.3-.1-3.6-.2-7.3-.1-10.9.1-7.4-.6-14.8-.3-22.2.6-16.8 3.6-33.2 10.2-48.8 9.4-22.2 24.8-39 45.8-50.8 15.8-8.8 32.6-14.4 50.4-17.3 11-1.8 22-2.8 33.1-3.1 13.2-.4 26.4-.3 39.7-.1 17 .2 33.8 1.8 50.3 5.8 15.7 3.7 30.5 9.6 44.1 18.3 16.5 10.5 29.1 24.4 37.6 42.1 5.3 10.9 8.5 22.4 10.6 34.3 1.5 8.8 2.1 17.6 2 26.5-.1 9.4-.3 18.8-.9 28.1-.4 6.4-.4 12.8-.7 19.2-1.1 17.7-4.7 34.8-12.5 50.8-9.6 19.6-24.1 34.4-43.1 45.1-15.7 8.8-32.5 14.3-50.1 17.3-13.8 2.3-27.8 3.4-41.8 3.4-8.6 0-17.2-.1-25.8 0-4.4 0-8.8.1-13.2-.4-1.4-.1-2.4.3-3.3 1.4-6.9 8-13.8 16-20.8 24-8.6 9.9-17.2 19.8-25.7 29.6-.9 1-1.9 2-3 2.7-2.7 1.8-5.5.8-6.2-2.4-.2-.7-.1-1.6-.1-2.3-.1-10.2.1-20.5.2-30.7z" fill="#7143b9"/><path class="st2" d="M158.3 179.9c.3-12.2 5.9-21.4 16-28 4.2-2.8 8.8-5 13.8-6 5.2-1.1 10.2-.4 14.6 2.9 2.9 2.1 5.3 4.7 7.7 7.3 8 8.8 14.8 18.3 20.3 28.9.9 1.8 1.7 3.7 2.3 5.7 1.7 5.7.4 10.7-3.4 15.1-1.4 1.6-3 3-4.7 4.3-1.6 1.1-3.2 2.3-4.7 3.7-3.5 3.3-4.5 7.3-3.4 11.9.4 1.9 1.1 3.7 1.8 5.4 4.1 9 9.6 17.1 16.7 24.1 4.2 4.1 8.7 7.7 13.7 10.8 4.8 3 9.6 5.8 15 7.7 5 1.8 8.8.7 12.1-3.5 1.4-1.8 2.6-3.7 4.2-5.4 3-3.2 6.4-5.6 10.7-6.6 4.7-1.1 9.2-.3 13.5 1.6 4.1 1.7 7.7 4.3 11.3 6.8 7.2 5 14.2 10.3 21 15.8 1.8 1.5 3.4 3.2 4.9 5.1 3.5 4.6 4.2 9.7 2.7 15.1-1.4 5.2-4 9.7-7.4 13.8-5.9 7.2-13.1 12.6-22 15.5-2.4.8-4.8 1.3-7.3 1.5-3.2.3-6.2-.8-9.2-1.7-2.9-.8-5.6-2.2-8.3-3.4-13.5-6-26.5-13.1-38.8-21.3-18.5-12.3-35-26.7-49.4-43.6-10.7-12.6-20-26.2-27.9-40.8-5.1-9.3-9.6-18.9-13.4-28.8-1.5-4.3-2.4-9.8-2.4-13.9zm192.6 40.7c-.1 3.3.3 5.7 0 8-.7 5.7-5.7 8.7-11 6.5-3.2-1.3-4.2-4.1-4.5-7.2-.3-3.8-.6-7.6-1.2-11.4-2-11.7-5.2-23-11.5-33.2-4.7-7.6-10.8-13.8-18.4-18.7-8.8-5.7-18.6-9-28.8-11.3-4.4-1-8.9-1.8-13.4-2.2-1.1-.1-2.1-.3-3.1-.7-3.1-1.1-4.7-3.4-4.5-6.7.4-5.8 3.7-8.1 8.2-8.1 17.1-.3 32.7 4.2 47 13.5 8.4 5.5 15.9 12 22.1 19.9 12 15.3 19 32.7 19.1 51.6z"/><path class="st2" d="M325 218.8c-.1 1.7.2 3.9-.3 6.1-.7 3.7-3.3 5.8-7.2 5.9-4.1.1-6.7-1.7-7.6-5.4-.4-1.4-.4-2.9-.6-4.4-.7-6.7-2.3-13.3-4.9-19.6-3.6-9-10.1-15.1-19-18.9-6.2-2.6-12.6-4.5-19.2-5.5-1.8-.3-3.5-.7-5.1-1.5-.8-.4-1.5-.9-2-1.6-2.2-2.7-2.1-5.6-.9-8.6 1-2.7 3.1-4.2 6-4.5 2.4-.3 4.8.1 7.2.5 6.7 1 13.2 2.7 19.4 5.6 7.9 3.8 14.7 9.1 20.5 15.7 4.9 5.7 8.6 12 11 19.1 1.7 5.5 2.6 11 2.7 17.1z"/><path class="st2" d="M300.1 216.9c0 2 0 4-.7 5.9-1 2.9-3.1 4.6-6.1 5-3.1.4-5.6-.7-7.3-3.3-.9-1.3-1.3-2.7-1.5-4.2-.4-2.5-.7-5.1-1.7-7.4-2.1-5.1-6.1-8.1-11.3-9.5-1-.3-2.1-.5-3.1-.7-.8-.2-1.7-.4-2.5-.6-3.7-1.1-5.6-3.4-5.6-6.6 0-3.8 2.1-6.9 5.6-7.9 3.4-1 6.9-.8 10.3.1 8.1 2.3 14.1 7.4 18.8 14.2 3.1 4.4 5.1 9.4 5.1 15z"/></g></svg>